<svg width="28" height="36" viewBox="0 0 28 36" fill="none" xmlns="http://www.w3.org/2000/svg">
<path d="M28 14.3438C28 17.1324 27.2233 19.7353 25.8793 21.9375C20.1992 31.2453 14 36 14 36C14 36 7.80082 31.2453 2.12068 21.9375C0.776749 19.7353 0 17.1324 0 14.3438C0 6.42192 6.26801 0 14 0C21.732 0 28 6.42192 28 14.3438Z" fill="#1AB248"/>
<rect x="3" y="3" width="22" height="22" rx="11" fill="white"/>
<path fill-rule="evenodd" clip-rule="evenodd" d="M20.794 17.6239L19.9795 17.6238C20.1644 17.9281 20.2719 18.2802 20.2719 18.6566C20.2719 19.795 19.3031 20.7217 18.1124 20.7217C16.9217 20.7217 15.9528 19.795 15.9528 18.6566C15.9528 18.2802 16.0604 17.9281 16.2452 17.6238H13.6811C13.8659 17.9281 13.9732 18.2802 13.9732 18.6566C13.9732 19.795 13.0049 20.7217 11.8142 20.7217C10.6232 20.7217 9.6544 19.795 9.6544 18.6566C9.6544 18.2802 9.76196 17.9281 9.94654 17.6238L9.12351 17.6239C8.82677 17.6239 8.58382 17.3914 8.58382 17.1075L8.57447 9.98375L6.82488 8.30977C6.61436 8.10904 6.61436 7.78045 6.82488 7.57973C7.0346 7.379 7.37808 7.379 7.58834 7.57973L9.5152 9.42291C9.5225 9.42989 9.52466 9.43945 9.53142 9.44668C9.55358 9.47251 9.57304 9.50041 9.58952 9.53038C9.65573 9.6381 9.67681 9.759 9.65438 9.87887L9.66373 16.5911H20.794C21.0907 16.5911 21.3337 16.8236 21.3337 17.1075C21.3337 17.3914 21.0907 17.6239 20.794 17.6239ZM11.8142 17.6238C11.2186 17.6238 10.734 18.087 10.734 18.6566C10.734 19.2259 11.2186 19.6891 11.8142 19.6891C12.4093 19.6891 12.8936 19.2259 12.8936 18.6566C12.8936 18.087 12.4093 17.6238 11.8142 17.6238ZM17.0325 18.6566C17.0325 19.2259 17.517 19.6891 18.1124 19.6891C18.708 19.6891 19.192 19.2259 19.192 18.6566C19.192 18.087 18.708 17.6238 18.1124 17.6238C17.517 17.6238 17.0325 18.087 17.0325 18.6566ZM19.7141 15.5585H11.2382C10.9398 15.5585 10.698 15.3273 10.698 15.0421L10.698 7.79337C10.698 7.50843 10.9399 7.27722 11.2382 7.27722H14.9632H16.0428L19.7141 7.29711C20.0124 7.29711 20.254 7.52832 20.254 7.81326V15.0421C20.254 15.3273 20.0124 15.5585 19.7141 15.5585ZM19.1741 8.32966L16.0428 8.30977V9.85897C16.0428 10.1442 15.8012 10.3751 15.5031 10.3751C15.2048 10.3751 14.9632 10.1442 14.9632 9.85897V8.30977H11.7779L11.7779 14.526H19.1741V8.32966Z" fill="#1AB248"/>
<rect x="3" y="3" width="22" height="22" rx="11" fill="white"/>
<rect x="3" y="3" width="22" height="22" rx="11" fill="white"/>
<path d="M8 19H20M9.33333 19V9.66667L14.6667 7V19M18.6667 19V12.3333L14.6667 9.66667M12 11V11.0067M12 13V13.0067M12 15V15.0067M12 17V17.0067" stroke="#1AB248" stroke-width="1.2" stroke-linecap="round" stroke-linejoin="round"/>
</svg>
