<svg width="28" height="36" viewBox="0 0 28 36" fill="none" xmlns="http://www.w3.org/2000/svg">
<path d="M28 14.3438C28 17.1324 27.2233 19.7353 25.8793 21.9375C20.1992 31.2453 14 36 14 36C14 36 7.80082 31.2453 2.12068 21.9375C0.776749 19.7353 0 17.1324 0 14.3438C0 6.42192 6.26801 0 14 0C21.732 0 28 6.42192 28 14.3438Z" fill="#4B3C87"/>
<rect x="3" y="3" width="22" height="22" rx="11" fill="white"/>
<rect x="3" y="3" width="22" height="22" rx="11" fill="white"/>
<path d="M8.66699 15.3333H19.3337M12.667 8.66663V19.3333M8.66699 12H12.667M10.0003 8.66663H18.0003C18.7367 8.66663 19.3337 9.26358 19.3337 9.99996V18C19.3337 18.7363 18.7367 19.3333 18.0003 19.3333H10.0003C9.26395 19.3333 8.66699 18.7363 8.66699 18V9.99996C8.66699 9.26358 9.26395 8.66663 10.0003 8.66663ZM14.667 10.6666H17.3337V13.3333H14.667V10.6666Z" stroke="#4B3C87" stroke-width="1.2" stroke-linecap="round" stroke-linejoin="round"/>
</svg>
